_________________________  Visit us at _________________________
  
http://p2pdl.com  ____________________________  http://p2pdl.com


Java Heat 2013 BRRip 720p x264 AAC - PRiSTiNE


Genre: Action | Crime | Drama
Plot: An American in Indonesia teams up with a Muslim cop to track down a terrorist.
Director: Conor Allyn
Stars: Kellan Lutz, Mickey Rourke, Ario Bayu.
Rated: N/a.


IMDb: 
http://www.imdb.com/title/tt2083231/

Trailer:


Format                         : MPEG-4
File size                      : 582 MiB
Duration                       : 1h 43mn
Overall bit rate               : 784 Kbps
Video Format                   : AVC
Video Bit rate                 : 697 Kbps
Width                          : 1 280 pixels
Height                         : 544 pixels
Display aspect ratio           : 2.35:1
Frame rate mode                : Constant
Frame rate                     : 23.976 fps
Stream size                    : 517 MiB (89%)
Writing library                : x264 core 129 r2245
Audio Format                   : AAC
Duration                       : 1h 43mn
Audio Bit rate                 : 83.9 Kbps
Channel(s)                     : 2 channels
Channel positions              : Front: L R
Sampling rate                  : 48.0 KHz
Stream size                    : 62.3 MiB (11%)
Language                       : English
Tagged date                    : UTC 2013-03-10 07:57:17
Subtitle                       : N/a
Source                         : 720p.BluRay.DTS.x264-PHD(Thanks)

Screenshots:
 
http://cdn.piczend.com/images/kNWc8QmY/1362931083_tinybayjavaheat2013brri.jpg


----------------------------------------------------------------------------------------------------


Encoded using revolutionary 10bit encoding, which enables us to provide you more crispier and
sharper images at small sizes, just make sure you follow our instructions without a fault.
Recommend to you to use latest version of VLC player. Install K-Lite Codec Pack or shark007 codecs
in case of any kind of problem in playback (For non-VLC Media Player users). Alternatively, install
Core AVC codecs, the fastest decoder that there is coupled with Community Center Codec Pack and play
on Windows Media Player Classic.


Encoder Notes: Looking For Early Access To Anything You Can Provide DVDScr, R5, DVDR, BluRay, Direct
Audio, Music Releases and Seedboxes. We require dedicated servers, so as to do more and fast releases of movies.
If You Got anything to offer contact us at "prg@hush.com".